<svg viewBox="0 0 24 24" fill="none" xmlns="http://www.w3.org/2000/svg"><g clip-path="url(#a)" fill="#343A3F"><path d="M.7 10.2h-.7v6.16a5.4 5.4 0 0 1 2.53.82v-6.99h-1.83Zm18.86-7.65h-15.12a4.44 4.44 0 0 0-4.44 4.43v1.8h9.15v-1.3h5.7v1.3h9.15v-1.8c0-2.44-2-4.43-4.44-4.43Zm-4.71 7.65v.77a3 3 0 0 1-.1.74h5.31v-1.52h-5.21Zm8.45 0h-1.83v6.98a5.4 5.4 0 0 1 2.53-.82v-6.17h-.7Zm-9.43 2.92a2.83 2.83 0 0 1-3.74 0h-6.2v5.32a5.42 5.42 0 0 1 1.16 3.01h13.82a5.42 5.42 0 0 1 1.15-3.01v-5.32h-6.19Zm6.45 8.33h3.68v-3.68a4.04 4.04 0 0 0-3.68 3.68Zm-20.32-3.68v3.68h3.68a4.04 4.04 0 0 0-3.68-3.68Zm9.15-6.8v-.78h-5.21v1.52h5.31c-.06-.23-.1-.48-.1-.74Zm1.41-2.08v2.08a1.44 1.44 0 0 0 2.88 0v-2.08h-2.88Z"/></g><defs><clipPath id="a"><path fill="#fff" d="M0 0h24v24h-24z"/></clipPath></defs></svg>