<svg viewBox="0 0 21 20" fill="none" xmlns="http://www.w3.org/2000/svg"><g clip-path="url(#a)" fill="#4888FF" fill-opacity=".5"><path d="M16.33 4.48c1.47 1.86 1.28 4.49 1.28 6.23h2.14c0-1.82.04-2.28-.13-3.04-.38-1.72-1.55-2.96-3.3-3.19Zm-13.61 6.22c0-1.83-.02-2.37.11-3.26a6.3 6.3 0 0 1 1.17-2.96c-1.56.19-2.87 1.31-3.29 3.18-.17.77-.13 1.23-.13 3.05h2.14Zm1.3-3.08c-.12.8-.1 1.25-.1 3.09h1.63v-.63a2.5 2.5 0 0 1 2.5-2.5h4.23a2.5 2.5 0 0 1 2.5 2.5v.63h1.62c0-1.83.03-2.3-.09-3.09-.21-1.41-.95-3.17-2.33-3.17-8.22 0-7.72-.01-7.93.04-1 .21-1.77 1.41-2.03 3.13Zm10.62 5.51h3.5c.32 0 .6.27.6.6v4.35a.6.6 0 0 1-.6.6h-16.02a.6.6 0 0 1-.6-.6v-4.35c0-.33.27-.6.6-.6h3.57c-.16-.47-.14-.8-.14-1.22h-4.97v7.42c0 .33.27.6.6.6h17.97a.6.6 0 0 0 .6-.6v-7.42h-4.96c0 .42.02.75-.15 1.22Z"/><path d="M2.72 14.33v3.15h14.81v-3.15h-3.75c-.32.25-.7.43-1.1.51 0 1.24-.77 1.86-1.64 1.86h-1.82c-.82 0-1.64-.56-1.64-1.88a2.6 2.6 0 0 1-1.03-.49h-3.83Z"/><path d="M12.28 8.78h-4.22a1.3 1.3 0 0 0-1.31 1.3v2.2c0 .73.58 1.4 1.43 1.4.33 0 .6.27.6.6v.79c0 .24.2.43.44.43h1.82c.24 0 .43-.2.43-.43v-.78a.6.6 0 0 1 .37-.56c.27-.1.93.1 1.45-.6.33-.43.3-.81.3-1.22v-1.83c0-.72-.6-1.3-1.31-1.3Zm-3.13 2.32a.6.6 0 0 1-1.2 0v-.7a.6.6 0 0 1 1.2 0v.7Zm1.62 1.87a.6.6 0 0 1-1.2 0c0-.72-.04-.85.13-1.06a.6.6 0 0 1 1.07.38v.68Zm1.5-1.66a.6.6 0 0 1-1.16-.21v-.7a.6.6 0 0 1 1.2 0c0 .76 0 .78-.04.9Zm7.16-9.34h-.37v-.36a.6.6 0 1 0-1.2 0v.36h-.37a.6.6 0 0 0 0 1.2h.37v.37a.6.6 0 0 0 1.2 0v-.37h.37a.6.6 0 0 0 0-1.2Zm-5.57.23h.37v.37a.6.6 0 0 0 1.2 0v-.36h.36a.6.6 0 0 0 0-1.2h-.36v-.37a.6.6 0 1 0-1.2 0v.36h-.37a.6.6 0 0 0 0 1.2Zm-9.6 0h.36v.37a.6.6 0 1 0 1.2 0v-.36h.37a.6.6 0 0 0 0-1.2h-.36v-.37a.6.6 0 0 0-1.2 0v.36h-.37a.6.6 0 0 0 0 1.2Zm-3.26.97v.37a.6.6 0 0 0 1.2 0v-.37h.36a.6.6 0 1 0 0-1.2h-.37v-.36a.6.6 0 0 0-1.2 0v.36h-.36a.6.6 0 0 0 0 1.2h.36Z"/></g><defs><clipPath id="a"><path fill="#fff" transform="translate(.026)" d="M0 0h20v20h-20z"/></clipPath></defs></svg>