<svg viewBox="0 0 20 20" fill="none" xmlns="http://www.w3.org/2000/svg"><path d="M12.9 15.5c0-1.06-.68-1.68-1.97-2.78l-.93-.8-1.04.9c-1.3 1.1-1.86 1.63-1.86 2.69a2.9 2.9 0 1 0 5.8 0Z" fill="#4888FF" fill-opacity=".5"/><path d="M13.67 3.36c-1-.85-2.03-1.72-3.07-2.77l-.6-.59-.58.6c-1.88 1.88-2.77 4.77-3.15 6.5-.3-.45-.52-.95-.65-1.48l-.36-1.36-1.03.96c-1.8 1.7-3 3.37-3 6.05a8.69 8.69 0 0 0 7.94 8.73 4.58 4.58 0 0 1-3.74-4.5c0-1.87 1.13-2.82 2.44-3.94.47-.4 1-.85 1.54-1.4l.59-.58.59.59c.48.48.96.88 1.42 1.28 1.32 1.11 2.56 2.17 2.56 4.06a4.57 4.57 0 0 1-3.72 4.49 8.76 8.76 0 0 0 7.92-8.73c0-3.58-2.36-5.59-5.1-7.9Z" fill="#4888FF" fill-opacity=".5"/></svg>