<svg viewBox="0 0 24 24" fill="none" xmlns="http://www.w3.org/2000/svg"><g clip-path="url(#a)" fill="#343A3F"><path d="M9.36 11.17h-1.65a.41.41 0 0 0-.42.42v.41h2.49v-.41a.41.41 0 0 0-.42-.42Zm4.55-3.72h-.82v2.9c0 1.3-.56 2.47-1.44 3.3h2.26v-6.2Zm-7.61 10.93 1.49-1-1.8-1.2-.3.09.6 2.1Zm6.32-3.9h-1.19v.93l.64.18.55-1.1Z"/><path d="M12.26 7.45h-7.45v2.9a3.73 3.73 0 0 0 7.45 0v-2.9Zm-6.2 1.24a.41.41 0 1 1 .82 0 .41.41 0 0 1-.83 0Zm4.54 4.14h-4.13v-1.24c0-.69.55-1.25 1.24-1.25h1.65c.69 0 1.24.56 1.24 1.25v1.24Zm0-3.73a.41.41 0 1 1 0-.82.41.41 0 0 1 0 .82Zm4.93-8.69h-.37c-1 0-1.84.72-2.03 1.66h.37c1 0 1.84-.71 2.03-1.66Zm-.79 4.14h-.38l-12.03 1.2v.87h12.41v-2.07Zm-3.72-1.24c0-.68.55-1.24 1.24-1.24h.03v-.02a4.14 4.14 0 0 0-7.41.56c-.31.77-.71 1.5-1.19 2.18l7.56-.76c-.14-.2-.23-.45-.23-.72Zm1.65 0a.41.41 0 1 1-.83 0 .41.41 0 0 1 .83 0Zm-3.39 14.07 1.5 1 .6-2.12-.3-.09-1.8 1.2Zm4.63-2.9h-.36l-.67 1.35.64.18.1-.37 2.45.61-.15.59c.36.23.66.54.87.89l1.19-2.37-3.27-1.5a.83.83 0 0 1-.8.62Zm1.79 3.22c-.4 1.42-1 2.76-1.79 3.98v2.32h2.49v-4.75c0-.6-.26-1.16-.7-1.55Zm-2.61 6.3v-1.17c-.33.4-.66.8-1.03 1.17h1.03Z"/><path d="m15.07 16.85-.86-.21-.05.18a14.43 14.43 0 0 1-4.28 6.94l-.27.24h1.24a13.56 13.56 0 0 0 4.14-6.85l.08-.3Zm-12.93.49a2.06 2.06 0 0 0-1.47 1.98v4.68h2.49v-3.15c0-1.24-.2-2.46-.61-3.63l-.41.12Z"/><path d="m13.3 16.8-1.12-.31-.92 3.2-2.31-1.54v5.33l.38-.34a13.6 13.6 0 0 0 3.96-6.34Zm-8.4-.3-1.56.48c.43 1.25.64 2.54.64 3.87v3.15h4.14v-5.85l-2.31 1.54-.91-3.18Zm-.92-6.16v-2.9h-.82v6.21h2.26c-.88-.83-1.44-2-1.44-3.3Zm6.62 4.06a4.52 4.52 0 0 1-4.13 0v1.1l2.06 1.38 2.07-1.38v-1.1Zm10.76-5.78-.88-1.78-1.5 2.6.45 1.7-1.3 2.25-2.53-1.18 1.48-2.57 1.7-.46 1.5-2.6-1.98.12-.88-1.78-1.5 2.6.45 1.7-1.53 2.64-.1-.04v1.15l3.95 1.8.46-.92-.26-.12 1.26-2.17 1.7-.46 1.5-2.6-1.99.12Z"/></g><defs><clipPath id="a"><path fill="#fff" d="M0 0h24v24h-24z"/></clipPath></defs></svg>