<svg viewBox="0 0 20 20" fill="none" xmlns="http://www.w3.org/2000/svg"><g clip-path="url(#a)" fill="#4888FF" fill-opacity=".5"><path d="M16.94 13.06a8.01 8.01 0 0 1-13.88 0 8.11 8.11 0 0 0-3.06 6.35c0 .33.26.59.59.59h18.82c.33 0 .59-.26.59-.59 0-2.56-1.2-4.86-3.06-6.35Zm-12.44-11.77h-2.31a.59.59 0 0 0-.59.58c0 1.14.44 2.17 1.15 2.94a7.36 7.36 0 0 1 1.75-3.52Zm13.9.59a.59.59 0 0 0-.59-.6h-2.31c.87.99 1.5 2.2 1.75 3.53a4.32 4.32 0 0 0 1.15-2.93Zm-14.61 5.42h1.09a1.76 1.76 0 0 1 3.37 0h3.5a1.76 1.76 0 0 1 3.37 0h1.1v-1.09a6.22 6.22 0 0 0-12.43 0v1.1Zm7.46-4.14h1.25a.59.59 0 0 1 0 1.18h-1.25a.59.59 0 0 1 0-1.18Zm-3.75 0h1.25a.59.59 0 0 1 0 1.18h-1.25a.59.59 0 0 1 0-1.18Z"/><path d="M6.56 7.23a.59.59 0 0 0-.58.58v.67h-2.23a.59.59 0 0 0-.59.58 6.84 6.84 0 0 0 13.68 0 .59.59 0 0 0-.59-.58h-2.23v-.67a.59.59 0 1 0-1.17 0v.67h-5.7v-.67a.59.59 0 0 0-.59-.58Z"/></g><defs><clipPath id="a"><path fill="#fff" d="M0 0h20v20h-20z"/></clipPath></defs></svg>