<svg viewBox="0 0 22 22" fill="none" xmlns="http://www.w3.org/2000/svg"><path d="M11 .5a10.5 10.5 0 1 0-.01 20.99 10.5 10.5 0 0 0 .01-20.99Zm-1.21 2.47c-1.16.75-1.98 1.33-2.16 1.97-.3 1.12 1.69 1.94 2.24 2.43 1 .9.54 3.1-.5 4.08-1.06.99-1.45 1.99-1.33 2.74.15.98 1.26 2.53 1.85 3.5.6.97-.03 1.19-.86.7-.62-.38-3.46-1.07-4.32-1.7-.87-.62-1.14-2.77-.87-3.66.28-.9.6-3.28-.76-4.06a2.5 2.5 0 0 1-.81-.72 9.17 9.17 0 0 1 9.1-6.4c-.6.44-1.18.86-1.58 1.12Zm8.97 9.74a16.09 16.09 0 0 1-2.78-.45c-1.07-.6-.72-1.4-.27-2.56.44-1.17-1.79-2.19-1.79-3.6 0-1.36.88-2.27 1.92-2.87a9.16 9.16 0 0 1 3.54 11.45c-.04-1 .05-1.9-.62-1.97Z" fill="#343A3F" fill-opacity=".5"/></svg>