<svg viewBox="0 0 21 20" fill="none" xmlns="http://www.w3.org/2000/svg"><g clip-path="url(#a)" fill="#4888FF" fill-opacity=".5"><path d="M11.74 17.14c.16 0 .3-.12.33-.28l.04-.17.03-.1.02-.07c.2-.6.55-1.13 1.04-1.52h-2.11a6.89 6.89 0 0 0-.13 1.8c0 .11.02.21.04.32v.02h.74Zm.31-15.1c0-.08.02-.16.04-.23 0-.05.02-.09.03-.13.02-.07.03-.14.06-.2l.04-.13.08-.19.06-.12.1-.18.07-.11.13-.18.07-.1.18-.2.04-.04c.07-.08.16-.15.24-.22l.01-.01h-10.12a2.5 2.5 0 1 0 0 5h10.12a3.21 3.21 0 0 1-1.15-2.96Zm-8.97-.61c-.49 0-.92.33-1.04.8a.35.35 0 0 1-.63.13.36.36 0 0 1-.06-.3c.2-.8.91-1.35 1.73-1.35a.36.36 0 1 1 0 .72Zm2.5 0h-1.07a.36.36 0 0 1 0-.72h1.07a.36.36 0 1 1 0 .72Zm11.94 16.95c.26-.55.4-1.4-.39-2.37a2.51 2.51 0 0 0-1.9-1.01l-.25.02c-.07 0-.13 0-.2.02-.05 0-.1.03-.15.04a2.5 2.5 0 0 0-1.71 1.46l-.03.05-.06.21-.06.21c-.1.48-.51.83-1 .84h-.54c.31.66.8 1.2 1.43 1.56.16.1.32.17.48.24l.07.03.4.14.14.04.46.1h.13a3.05 3.05 0 0 0 3.17-1.6Z"/><path d="M4.5 20h7.75a4.02 4.02 0 0 1-2.03-3.57 7.78 7.78 0 0 1 .04-.77l.05-.37.04-.24a9.6 9.6 0 0 1 .33-1.2 14.92 14.92 0 0 0-.72.79l-.02.01-.06.08-.01.02a.54.54 0 0 0-.03.05h-.02v.02l-.02.03a.41.41 0 0 1-.06.07h-.02l-.02.02a.29.29 0 0 1-.06.03h-.02l-.02.02a.3.3 0 0 1-.08 0l-.01.01h-.02c-.03 0-.07 0-.1-.02h-.01a.27.27 0 0 1-.1-.07.1.1 0 0 1-.03-.03.28.28 0 0 1-.07-.12l-.02-.03v-.15c.16-1.58.7-3.1 1.55-4.44a11.59 11.59 0 0 1 6.19-4.88c.52-.83.8-1.78.82-2.76a2.5 2.5 0 1 0-2.5 2.5.36.36 0 1 1 0 .71h-10.96c-.35.86-.78 1.68-1.28 2.45l-.64 1.1a12.47 12.47 0 0 0-1.76 6.45c0 2.2 1.9 4.29 3.93 4.29Zm-1.41-10.44a.35.35 0 0 1 .15-.21l.7-.47c.34-.23.8-.23 1.14 0l.32.21c.1.08.25.08.36 0l.31-.2c.35-.24.8-.24 1.16 0l.31.2a.3.3 0 0 0 .36 0l.32-.2a1 1 0 0 1 1.15 0l.7.46a.35.35 0 0 1 .1.49.36.36 0 0 1-.3.16.34.34 0 0 1-.2-.06l-.7-.46a.31.31 0 0 0-.36 0l-.31.2a1 1 0 0 1-1.15 0l-.32-.2a.31.31 0 0 0-.36 0l-.32.2a1 1 0 0 1-1.15 0l-.31-.2a.31.31 0 0 0-.36 0l-.7.46a.35.35 0 0 1-.5-.1.36.36 0 0 1-.04-.28Zm-.92 2.29.7-.47c.34-.23.8-.23 1.14 0l.32.21c.1.08.25.08.36 0l.31-.2a1 1 0 0 1 1.15 0l.32.2c.1.08.25.08.36 0l.32-.2a1 1 0 0 1 1.15 0l.69.46a.36.36 0 0 1-.2.65.34.34 0 0 1-.2-.06l-.69-.46a.31.31 0 0 0-.36 0l-.31.2c-.35.24-.8.24-1.16 0l-.31-.2a.31.31 0 0 0-.36 0l-.32.2a1 1 0 0 1-1.15 0l-.32-.2a.31.31 0 0 0-.35 0l-.7.46a.36.36 0 1 1-.4-.6Zm-.72 2.85.7-.46c.34-.23.8-.23 1.15 0l.31.21a.3.3 0 0 0 .36 0l.32-.21c.35-.23.8-.23 1.15 0l.32.21c.1.08.25.08.35 0l.32-.21c.35-.23.8-.23 1.15 0l.7.46.06.06a.36.36 0 0 1-.46.54l-.7-.46a.31.31 0 0 0-.35 0l-.32.2a1 1 0 0 1-1.15 0l-.32-.2a.31.31 0 0 0-.35 0l-.32.2a1 1 0 0 1-1.15 0l-.32-.2a.31.31 0 0 0-.36 0l-.7.46a.35.35 0 0 1-.49-.1.36.36 0 0 1-.06-.2c0-.12.06-.23.16-.3Z"/><path d="M10.11 12.74c1.3-1.98 4.1-5.16 9.66-7.34-6 .5-8.62 4.78-9.66 7.34Z"/><path d="M20.5 5.9c-6.2 2.29-8.99 5.84-10.07 7.68a22.9 22.9 0 0 1 4.43-3.22c2.1-1.18 4-2.69 5.64-4.46Z"/></g><defs><clipPath id="a"><path fill="#fff" transform="translate(.54)" d="M0 0h20v20h-20z"/></clipPath></defs></svg>