<svg viewBox="0 0 24 22" fill="none" xmlns="http://www.w3.org/2000/svg"><path d="M23.53.97a1.45 1.45 0 0 0-1.43-.31l-21.1 6.95a1.45 1.45 0 0 0-.13 2.71l5.22 2.28 1.57 7.3c.07.3.22.58.55.66.33.09.56-.1.8-.28l3.88-2.9 4.53 3.7a1.44 1.44 0 0 0 1.38.26c.48-.17.83-.55.94-1.04l4.22-17.93a1.45 1.45 0 0 0-.43-1.4Zm-14.18 12.94v.02l-.88 3.05-.97-4.52 6.7-3.72-4.69 4.9a.7.7 0 0 0-.16.27Zm.28 4.15.4-1.39.38-1.32 1.36 1.11-2.14 1.6Zm12.96-16.02-4.22 17.93c0 .01 0 .02-.02.03h-.04l-4.95-4.06-2.3-1.88 7.37-7.7a.7.7 0 0 0-.85-1.11l-10.92 6.06-5.23-2.28c-.01-.01-.02-.01-.02-.04s.01-.03.03-.04l21.1-6.95h.04v.04Z" fill="#343A3F"/></svg>