<svg viewBox="0 0 24 24" fill="none" xmlns="http://www.w3.org/2000/svg"><path fill-rule="evenodd" clip-rule="evenodd" d="M20.13 3.27a11.16 11.16 0 0 0-17.55 13.45l-1.58 5.78 5.91-1.55a11.17 11.17 0 0 0 13.22-17.68Zm-7.89 17.15a9.2 9.2 0 0 1-4.72-1.29l-.34-.2-3.5.92.93-3.42-.22-.35a9.28 9.28 0 0 1 14.4-11.48 9.28 9.28 0 0 1-6.56 15.82Zm5.09-6.94c-.28-.14-1.65-.81-1.9-.9-.26-.1-.45-.14-.63.14-.19.28-.72.9-.89 1.09-.16.18-.32.2-.6.07-.28-.14-1.18-.44-2.24-1.38a8.4 8.4 0 0 1-1.55-1.93c-.16-.28 0-.42.12-.57.3-.38.6-.77.7-.96.1-.18.04-.34-.02-.48-.07-.14-.63-1.51-.86-2.07-.23-.55-.46-.47-.63-.48l-.53-.01c-.19 0-.5.07-.75.35-.25.28-.97.95-.97 2.32 0 1.37 1 2.7 1.14 2.88.13.19 1.96 3 4.75 4.21.67.29 1.19.46 1.6.59a3.7 3.7 0 0 0 1.75.1c.53-.07 1.65-.67 1.88-1.32.23-.65.23-1.2.16-1.32-.07-.12-.26-.19-.53-.33Z" fill="#343A3F"/></svg>