<svg xmlns="http://www.w3.org/2000/svg"><style>:root svg:not(:target){display:none}</style><svg viewBox="0 0 8 14" fill="none" id="angle"><g clip-path="url(#angle_0)"><path d="M.65.65c.2-.2.5-.2.7 0l6 6c.2.2.2.5 0 .7l-6 6a.5.5 0 1 1-.7-.7l5.64-5.65-5.64-5.65a.5.5 0 0 1 0-.7Z" fill="#343A3F"></path></g><defs><clipPath id="angle_0"><path fill="#fff" d="M0 0h8v14h-8z"></path></clipPath></defs></svg><svg viewBox="0 0 38 16" fill="none" id="burger-desktop"><rect width="38" height="2" rx="1" fill="#fff"></rect><rect y="14" width="38" height="2" rx="1" fill="#fff"></rect><rect y="7" width="24" height="2" rx="1" fill="#fff"></rect></svg><svg viewBox="0 0 24 15" fill="none" id="burger-mobile"><rect x=".75" y=".5" width="22.5" height="1.25" rx=".625" fill="#fff"></rect><rect x=".75" y="13" width="22.5" height="1.25" rx=".625" fill="#fff"></rect><rect x=".75" y="6.75" width="15" height="1.25" rx=".625" fill="#fff"></rect></svg><svg viewBox="0 0 24 24" fill="none" id="cart"><g clip-path="url(#cart_0)" fill="#343A3F"><path d="M.7 10.2h-.7v6.16a5.4 5.4 0 0 1 2.53.82v-6.99h-1.83Zm18.86-7.65h-15.12a4.44 4.44 0 0 0-4.44 4.43v1.8h9.15v-1.3h5.7v1.3h9.15v-1.8c0-2.44-2-4.43-4.44-4.43Zm-4.71 7.65v.77a3 3 0 0 1-.1.74h5.31v-1.52h-5.21Zm8.45 0h-1.83v6.98a5.4 5.4 0 0 1 2.53-.82v-6.17h-.7Zm-9.43 2.92a2.83 2.83 0 0 1-3.74 0h-6.2v5.32a5.42 5.42 0 0 1 1.16 3.01h13.82a5.42 5.42 0 0 1 1.15-3.01v-5.32h-6.19Zm6.45 8.33h3.68v-3.68a4.04 4.04 0 0 0-3.68 3.68Zm-20.32-3.68v3.68h3.68a4.04 4.04 0 0 0-3.68-3.68Zm9.15-6.8v-.78h-5.21v1.52h5.31c-.06-.23-.1-.48-.1-.74Zm1.41-2.08v2.08a1.44 1.44 0 0 0 2.88 0v-2.08h-2.88Z"></path></g><defs><clipPath id="cart_0"><path fill="#fff" d="M0 0h24v24h-24z"></path></clipPath></defs></svg><svg viewBox="0 0 21 20" fill="none" id="chest"><g clip-path="url(#chest_0)" fill="#4888FF" fill-opacity=".5"><path d="M16.33 4.48c1.47 1.86 1.28 4.49 1.28 6.23h2.14c0-1.82.04-2.28-.13-3.04-.38-1.72-1.55-2.96-3.3-3.19Zm-13.61 6.22c0-1.83-.02-2.37.11-3.26a6.3 6.3 0 0 1 1.17-2.96c-1.56.19-2.87 1.31-3.29 3.18-.17.77-.13 1.23-.13 3.05h2.14Zm1.3-3.08c-.12.8-.1 1.25-.1 3.09h1.63v-.63a2.5 2.5 0 0 1 2.5-2.5h4.23a2.5 2.5 0 0 1 2.5 2.5v.63h1.62c0-1.83.03-2.3-.09-3.09-.21-1.41-.95-3.17-2.33-3.17-8.22 0-7.72-.01-7.93.04-1 .21-1.77 1.41-2.03 3.13Zm10.62 5.51h3.5c.32 0 .6.27.6.6v4.35a.6.6 0 0 1-.6.6h-16.02a.6.6 0 0 1-.6-.6v-4.35c0-.33.27-.6.6-.6h3.57c-.16-.47-.14-.8-.14-1.22h-4.97v7.42c0 .33.27.6.6.6h17.97a.6.6 0 0 0 .6-.6v-7.42h-4.96c0 .42.02.75-.15 1.22Z"></path><path d="M2.72 14.33v3.15h14.81v-3.15h-3.75c-.32.25-.7.43-1.1.51 0 1.24-.77 1.86-1.64 1.86h-1.82c-.82 0-1.64-.56-1.64-1.88a2.6 2.6 0 0 1-1.03-.49h-3.83Z"></path><path d="M12.28 8.78h-4.22a1.3 1.3 0 0 0-1.31 1.3v2.2c0 .73.58 1.4 1.43 1.4.33 0 .6.27.6.6v.79c0 .24.2.43.44.43h1.82c.24 0 .43-.2.43-.43v-.78a.6.6 0 0 1 .37-.56c.27-.1.93.1 1.45-.6.33-.43.3-.81.3-1.22v-1.83c0-.72-.6-1.3-1.31-1.3Zm-3.13 2.32a.6.6 0 0 1-1.2 0v-.7a.6.6 0 0 1 1.2 0v.7Zm1.62 1.87a.6.6 0 0 1-1.2 0c0-.72-.04-.85.13-1.06a.6.6 0 0 1 1.07.38v.68Zm1.5-1.66a.6.6 0 0 1-1.16-.21v-.7a.6.6 0 0 1 1.2 0c0 .76 0 .78-.04.9Zm7.16-9.34h-.37v-.36a.6.6 0 1 0-1.2 0v.36h-.37a.6.6 0 0 0 0 1.2h.37v.37a.6.6 0 0 0 1.2 0v-.37h.37a.6.6 0 0 0 0-1.2Zm-5.57.23h.37v.37a.6.6 0 0 0 1.2 0v-.36h.36a.6.6 0 0 0 0-1.2h-.36v-.37a.6.6 0 1 0-1.2 0v.36h-.37a.6.6 0 0 0 0 1.2Zm-9.6 0h.36v.37a.6.6 0 1 0 1.2 0v-.36h.37a.6.6 0 0 0 0-1.2h-.36v-.37a.6.6 0 0 0-1.2 0v.36h-.37a.6.6 0 0 0 0 1.2Zm-3.26.97v.37a.6.6 0 0 0 1.2 0v-.37h.36a.6.6 0 1 0 0-1.2h-.37v-.36a.6.6 0 0 0-1.2 0v.36h-.36a.6.6 0 0 0 0 1.2h.36Z"></path></g><defs><clipPath id="chest_0"><path fill="#fff" transform="translate(.026)" d="M0 0h20v20h-20z"></path></clipPath></defs></svg><svg viewBox="0 0 11 11" fill="none" id="clock"><path d="M5.5 0a5.5 5.5 0 1 0 .01 11.01 5.5 5.5 0 0 0-.01-11.01Zm2.62 8.34a.46.46 0 0 1-.65 0l-2.3-2.29a.46.46 0 0 1-.13-.32v-2.98a.46.46 0 1 1 .92 0v2.79l2.16 2.16a.46.46 0 0 1 0 .64Z" fill="#343A3F"></path></svg><svg viewBox="0 0 16 16" fill="none" id="close"><g clip-path="url(#close_0)" stroke="#343A3F" stroke-linecap="round" stroke-linejoin="round"><path d="m15 1-14 14m0-14 14 14"></path></g><defs><clipPath id="close_0"><path fill="#fff" d="M0 0h16v16h-16z"></path></clipPath></defs></svg><svg viewBox="0 0 20 20" fill="none" id="fire"><path d="M12.9 15.5c0-1.06-.68-1.68-1.97-2.78l-.93-.8-1.04.9c-1.3 1.1-1.86 1.63-1.86 2.69a2.9 2.9 0 1 0 5.8 0Z" fill="#4888FF" fill-opacity=".5"></path><path d="M13.67 3.36c-1-.85-2.03-1.72-3.07-2.77l-.6-.59-.58.6c-1.88 1.88-2.77 4.77-3.15 6.5-.3-.45-.52-.95-.65-1.48l-.36-1.36-1.03.96c-1.8 1.7-3 3.37-3 6.05a8.69 8.69 0 0 0 7.94 8.73 4.58 4.58 0 0 1-3.74-4.5c0-1.87 1.13-2.82 2.44-3.94.47-.4 1-.85 1.54-1.4l.59-.58.59.59c.48.48.96.88 1.42 1.28 1.32 1.11 2.56 2.17 2.56 4.06a4.57 4.57 0 0 1-3.72 4.49 8.76 8.76 0 0 0 7.92-8.73c0-3.58-2.36-5.59-5.1-7.9Z" fill="#4888FF" fill-opacity=".5"></path></svg><svg viewBox="0 0 24 24" fill="none" id="hunter"><g clip-path="url(#hunter_0)" fill="#343A3F"><path d="M9.36 11.17h-1.65a.41.41 0 0 0-.42.42v.41h2.49v-.41a.41.41 0 0 0-.42-.42Zm4.55-3.72h-.82v2.9c0 1.3-.56 2.47-1.44 3.3h2.26v-6.2Zm-7.61 10.93 1.49-1-1.8-1.2-.3.09.6 2.1Zm6.32-3.9h-1.19v.93l.64.18.55-1.1Z"></path><path d="M12.26 7.45h-7.45v2.9a3.73 3.73 0 0 0 7.45 0v-2.9Zm-6.2 1.24a.41.41 0 1 1 .82 0 .41.41 0 0 1-.83 0Zm4.54 4.14h-4.13v-1.24c0-.69.55-1.25 1.24-1.25h1.65c.69 0 1.24.56 1.24 1.25v1.24Zm0-3.73a.41.41 0 1 1 0-.82.41.41 0 0 1 0 .82Zm4.93-8.69h-.37c-1 0-1.84.72-2.03 1.66h.37c1 0 1.84-.71 2.03-1.66Zm-.79 4.14h-.38l-12.03 1.2v.87h12.41v-2.07Zm-3.72-1.24c0-.68.55-1.24 1.24-1.24h.03v-.02a4.14 4.14 0 0 0-7.41.56c-.31.77-.71 1.5-1.19 2.18l7.56-.76c-.14-.2-.23-.45-.23-.72Zm1.65 0a.41.41 0 1 1-.83 0 .41.41 0 0 1 .83 0Zm-3.39 14.07 1.5 1 .6-2.12-.3-.09-1.8 1.2Zm4.63-2.9h-.36l-.67 1.35.64.18.1-.37 2.45.61-.15.59c.36.23.66.54.87.89l1.19-2.37-3.27-1.5a.83.83 0 0 1-.8.62Zm1.79 3.22c-.4 1.42-1 2.76-1.79 3.98v2.32h2.49v-4.75c0-.6-.26-1.16-.7-1.55Zm-2.61 6.3v-1.17c-.33.4-.66.8-1.03 1.17h1.03Z"></path><path d="m15.07 16.85-.86-.21-.05.18a14.43 14.43 0 0 1-4.28 6.94l-.27.24h1.24a13.56 13.56 0 0 0 4.14-6.85l.08-.3Zm-12.93.49a2.06 2.06 0 0 0-1.47 1.98v4.68h2.49v-3.15c0-1.24-.2-2.46-.61-3.63l-.41.12Z"></path><path d="m13.3 16.8-1.12-.31-.92 3.2-2.31-1.54v5.33l.38-.34a13.6 13.6 0 0 0 3.96-6.34Zm-8.4-.3-1.56.48c.43 1.25.64 2.54.64 3.87v3.15h4.14v-5.85l-2.31 1.54-.91-3.18Zm-.92-6.16v-2.9h-.82v6.21h2.26c-.88-.83-1.44-2-1.44-3.3Zm6.62 4.06a4.52 4.52 0 0 1-4.13 0v1.1l2.06 1.38 2.07-1.38v-1.1Zm10.76-5.78-.88-1.78-1.5 2.6.45 1.7-1.3 2.25-2.53-1.18 1.48-2.57 1.7-.46 1.5-2.6-1.98.12-.88-1.78-1.5 2.6.45 1.7-1.53 2.64-.1-.04v1.15l3.95 1.8.46-.92-.26-.12 1.26-2.17 1.7-.46 1.5-2.6-1.99.12Z"></path></g><defs><clipPath id="hunter_0"><path fill="#fff" d="M0 0h24v24h-24z"></path></clipPath></defs></svg><svg viewBox="0 0 21 20" fill="none" id="lightning"><path d="M17.46 6.63a.59.59 0 0 0-.54-.35h-4.07l2.71-5.43a.59.59 0 0 0-.52-.85h-8.16a.59.59 0 0 0-.55.37l-3.76 9.41a.59.59 0 0 0 .54.8h4.78l-3.44 8.62a.59.59 0 0 0 .97.62l11.92-12.55a.6.6 0 0 0 .12-.64Z" fill="#4888FF" fill-opacity=".5"></path><path d="M17.46 6.63a.59.59 0 0 0-.54-.35h-4.07l2.71-5.43a.59.59 0 0 0-.52-.85h-5.02v14.98l7.32-7.71a.6.6 0 0 0 .12-.64Z" fill="#4888FF" fill-opacity=".5"></path></svg><svg viewBox="0 0 22 21" fill="none" id="like"><path d="M16.04.8a5.86 5.86 0 0 0-5.04 3.02 5.86 5.86 0 0 0-5.04-3.02 6.23 6.23 0 0 0-5.96 6.46c0 4.17 4.39 8.72 8.07 11.8a4.56 4.56 0 0 0 5.86 0c3.68-3.08 8.07-7.63 8.07-11.8a6.23 6.23 0 0 0-5.96-6.46Z" fill="#343A3F"></path></svg><svg viewBox="0 0 20 20" fill="none" id="loupe"><path d="m19.77 18.59-4.97-4.97a8.34 8.34 0 1 0-1.18 1.18l4.97 4.97a.83.83 0 0 0 1.18-1.18Zm-11.42-3.58a6.66 6.66 0 1 1 0-13.32 6.66 6.66 0 0 1 0 13.32Z" fill="#fff"></path></svg><svg viewBox="0 0 24 24" fill="none" id="menu-computer-case"><g clip-path="url(#menu-computer-case_0)"><path fill-rule="evenodd" clip-rule="evenodd" d="m14.83 0-13.9 2.32c-.2.04-.35.2-.35.41v18.54c0 .2.15.37.35.4l13.9 2.32a.4.4 0 0 0 .13 0l8.1-1.15c.2-.03.36-.2.36-.41v-20.86a.4.4 0 0 0-.35-.4l-8.11-1.17h-.13Zm.48 17.98v5.13l1.49-.21v-6.25l-1.49 1.33Zm-13.9-2.02 13.07 2.18v4.96l-13.07-2.18v-4.96Zm19.11-14.32v11.52a.4.4 0 0 1-.13.3l-2.76 2.46v6.86l4.96-.71v-20.14l-2.07-.3Zm-18.15 13.65 12.11 2.01v-2.36l-9.36-.96-2.75 1.3Zm17.33-13.77-4.39-.63v15.98l4.39-3.9v-11.45Zm-18.3 3.22v10.08l3.23-1.52v-9.1l-3.22.54Zm4.06-.68v9.13l9.02.92v-11.55l-9.02 1.5Zm10.76-1.33v1.16a.41.41 0 0 0 .83 0v-1.16a.41.41 0 0 0-.83 0Zm-1.74-1.01-13.07 2.18v-.82l13.07-2.18v.82Z" fill="#4888FF" fill-opacity=".5"></path></g><defs><clipPath id="menu-computer-case_0"><path fill="#fff" d="M0 0h24v24h-24z"></path></clipPath></defs></svg><svg viewBox="0 0 24 24" fill="none" id="menu-computercase"><g clip-path="url(#menu-computercase_0)"><path fill-rule="evenodd" clip-rule="evenodd" d="m14.83 0-13.9 2.32c-.2.04-.35.2-.35.41v18.54c0 .2.15.37.35.4l13.9 2.32a.4.4 0 0 0 .13 0l8.1-1.15c.2-.03.36-.2.36-.41v-20.86a.4.4 0 0 0-.35-.4l-8.11-1.17h-.13Zm.48 17.98v5.13l1.49-.21v-6.25l-1.49 1.33Zm-13.9-2.02 13.07 2.18v4.96l-13.07-2.18v-4.96Zm19.11-14.32v11.52a.4.4 0 0 1-.13.3l-2.76 2.46v6.86l4.96-.71v-20.14l-2.07-.3Zm-18.15 13.65 12.11 2.01v-2.36l-9.36-.96-2.75 1.3Zm17.33-13.77-4.39-.63v15.98l4.39-3.9v-11.45Zm-18.3 3.22v10.08l3.23-1.52v-9.1l-3.22.54Zm4.06-.68v9.13l9.02.92v-11.55l-9.02 1.5Zm10.76-1.33v1.16a.41.41 0 0 0 .83 0v-1.16a.41.41 0 0 0-.83 0Zm-1.74-1.01-13.07 2.18v-.82l13.07-2.18v.82Z" fill="#4888FF" fill-opacity=".5"></path></g><defs><clipPath id="menu-computercase_0"><path fill="#fff" d="M0 0h24v24h-24z"></path></clipPath></defs></svg><svg viewBox="0 0 24 24" fill="none" id="menu-knives"><g clip-path="url(#menu-knives_0)" fill-opacity=".5"><path d="M17.5 15h-13c-3.5 0-4-4-4-4h17v4Zm6-3h-3.5v2h3.5v-2Z" fill="#4888FF"></path><path d="M18.5 14h-1v-2h2.5v2h-1.5Zm-4.5-7.5v13c0 3.5-4 4-4 4v-17h4Z" fill="#fff"></path><path d="M13 .5h-2v3.5h2v-3.5Z" fill="#4888FF"></path><path d="M13 5.5v1h-2v-2.5h2v1.5Z" fill="#fff"></path><path d="M16 8v-1a1 1 0 0 0-1-1h-1.5v-1.5h1v-1h-1v-3a.5.5 0 0 0-.5-.5h-2a.5.5 0 0 0-.5.5v3h-1v1h1v1.5h-1.5a1 1 0 0 0-1 1v1h1v-1h.5v16.5a.5.5 0 0 0 .56.5c1.54-.2 4.44-1.38 4.44-4.5v-12.5h.5v1h1Zm-4.5-7h1v2.5h-1v-2.5Zm0 3.5h1v1.5h-1v-1.5Zm2 15c0 2.3-2 3.12-3 3.39v-15.89h3v12.5Z" fill="#4888FF"></path><path d="M12.5 12.5h-1v8h1v-8Zm0-2h-1v1h1v-1Zm0-2h-1v1h1v-1Zm-12.38 2.17a.5.5 0 0 0-.12.4c.2 1.53 1.38 4.43 4.5 4.43h4v-1h-4c-2.3 0-3.12-2-3.39-3h7.39v-1h-8a.5.5 0 0 0-.38.17Zm16.88-1.67h-1v1h1v.5h-1.5v1h1.5v3h-1.5v1h1.5v.5h-1v1h1a1 1 0 0 0 1-1v-6a1 1 0 0 0-1-1Z" fill="#4888FF"></path><path d="M8.5 12.5h-5v1h5v-1Zm15-1h-3v-1h-1v1h-1v1h1v1h-1v1h1v1h1v-1h3a.5.5 0 0 0 .5-.5v-2a.5.5 0 0 0-.5-.5Zm-.5 2h-2.5v-1h2.5v1Z" fill="#4888FF"></path></g><defs><clipPath id="menu-knives_0"><path fill="#fff" d="M0 0h24v24h-24z"></path></clipPath></defs></svg><svg viewBox="0 0 24 24" fill="none" id="menu-laptop"><path d="M21.32 16.66h-.01v-12.29h-18.64v12.3h.01l-2.68 2.1v.86h24v-.86l-2.68-2.1Zm-16.95-11.05 15.47.02-.12 9.8-15.38.07.03-9.89Zm6.24 13.16.38-.54h2.44l.45.54h-3.27Zm-8.04-1.03.89-.62h17.23l1.22.69-19.34-.07Z" fill="#4888FF" fill-opacity=".5"></path></svg><svg viewBox="0 0 24 24" fill="none" id="menu-new"><g clip-path="url(#menu-new_0)"><path d="m23.85 13.07-1.77-2.8a1 1 0 0 1-.13-.75l.7-3.23a1 1 0 0 0-.67-1.16l-3.15-1.01a1 1 0 0 1-.58-.5l-1.54-2.92a1 1 0 0 0-1.27-.46l-3.06 1.25a1 1 0 0 1-.76 0l-3.06-1.25a1 1 0 0 0-1.27.46l-1.54 2.93a1 1 0 0 1-.58.49l-3.15 1a1 1 0 0 0-.67 1.17l.7 3.23a1 1 0 0 1-.13.75l-1.77 2.8a1 1 0 0 0 .24 1.32l2.61 2.03c.21.16.35.4.38.66l.45 3.27a1 1 0 0 0 1.03.87l3.3-.13a1 1 0 0 1 .72.26l2.45 2.22a1 1 0 0 0 1.34 0l2.45-2.22a1 1 0 0 1 .71-.26l3.31.13a1 1 0 0 0 1.03-.87l.45-3.27a1 1 0 0 1 .38-.66l2.61-2.03a1 1 0 0 0 .24-1.32Zm-14.63 2.93-2.91-2.04 1.2 2.78-.8.34-1.84-4.26.83-.36 2.98 2.1-1.23-2.85.8-.35 1.84 4.26-.87.38Zm1.78-.77-1.84-4.26 3.16-1.37.31.72-2.3 1 .4.94 2.15-.92.3.72-2.13.92.5 1.16 2.38-1.03.31.72-3.24 1.4Zm7.2-3.1-2.22-2.83.53 3.55-.93.4-2.86-3.82.88-.38 1.9 2.65-.48-3.26 1.03-.44 2.03 2.65-.63-3.26.86-.37.8 4.7-.9.4Z" fill="#4888FF" fill-opacity=".5"></path></g><defs><clipPath id="menu-new_0"><path fill="#fff" d="M0 0h24v24h-24z"></path></clipPath></defs></svg><svg viewBox="0 0 24 24" fill="none" id="menu-people"><path d="M8.74 9.18a3.6 3.6 0 0 0 4.74 1.77c2.3-.93 2.82-4.3.96-5.88-2.84-2.65-7.31.57-5.7 4.11Zm7.16 3.57a4.68 4.68 0 0 0-2.48-.7c-.1-.01-3.1-.02-3.1 0a4.72 4.72 0 0 0-4.46 4.71c.04.42-.07 1.68.06 2.07a2.55 2.55 0 0 0 2.48 1.96h7.2a2.54 2.54 0 0 0 2.54-2.54v-1.49a4.71 4.71 0 0 0-2.23-4Z" fill="#4888FF" fill-opacity=".5"></path><path d="M3.18 18.83h1.64c-.1-.38-.03-1.77-.05-2.18a5.83 5.83 0 0 1 4.15-5.46c-.22-.17-.4-.4-.59-.6a3.62 3.62 0 0 0-.48-.03h-2.65a4.45 4.45 0 0 0-4.45 4.45v1.39a2.43 2.43 0 0 0 2.43 2.43Zm3.35-8.81c.45 0 .88-.09 1.28-.26a4.66 4.66 0 0 1 1.1-5.57c-2.03-2.1-5.86-.55-5.8 2.43 0 1.87 1.54 3.4 3.42 3.4Zm12.27.54h-2.65c-.52-.1-.71.35-1.07.63a5.79 5.79 0 0 1 4.14 5.46c0 .42.05 1.79-.04 2.18h1.64a2.43 2.43 0 0 0 2.43-2.43v-1.39a4.46 4.46 0 0 0-4.45-4.45Zm-2.42-4.49a4.62 4.62 0 0 1-.2 3.7c.41.16.85.25 1.3.25 4.5-.15 4.5-6.67 0-6.8-.9 0-1.76.34-2.4.97a4.6 4.6 0 0 1 1.3 1.88Z" fill="#4888FF" fill-opacity=".5"></path></svg><svg viewBox="0 0 24 24" fill="none" id="menu-phone"><path d="M17.97 0h-11.94c-.61 0-1.1.5-1.1 1.1v21.8c0 .6.49 1.1 1.1 1.1h11.94c.61 0 1.1-.5 1.1-1.1v-21.8c0-.6-.49-1.1-1.1-1.1Zm-7.2 1.3h2.45a.23.23 0 1 1 0 .47h-2.44a.23.23 0 0 1 0-.46Zm2.7 20.73h-2.95a.44.44 0 1 1 0-.88h2.96a.44.44 0 0 1 0 .88Zm4.22-2.58h-11.38v-15.7h11.38v15.7Z" fill="#4888FF" fill-opacity=".5"></path></svg><svg viewBox="0 0 24 24" fill="none" id="menu-stereo"><g clip-path="url(#menu-stereo_0)"><path fill-rule="evenodd" clip-rule="evenodd" d="M20.25 4.5a.75.75 0 1 1 0-1.5.75.75 0 0 1 0 1.5Zm-8.25 16.5a9 9 0 1 1 0-18 9 9 0 0 1 0 18Zm8.25 0a.75.75 0 1 1 0-1.5.75.75 0 0 1 0 1.5Zm-16.5 0a.75.75 0 1 1 0-1.5.75.75 0 0 1 0 1.5Zm0-18a.75.75 0 1 1 0 1.5.75.75 0 0 1 0-1.5Zm17.25-3h-18a3 3 0 0 0-3 3v18a3 3 0 0 0 3 3h18a3 3 0 0 0 3-3v-18a3 3 0 0 0-3-3Zm-9 16.5a4.5 4.5 0 1 1 0-9 4.5 4.5 0 0 1 0 9Zm0-12a7.5 7.5 0 1 0 0 15 7.5 7.5 0 0 0 0-15Zm0 4.5a3 3 0 1 0 0 6 3 3 0 0 0 0-6Z" fill="#4888FF" fill-opacity=".5"></path></g><defs><clipPath id="menu-stereo_0"><path fill="#fff" d="M0 0h24v24h-24z"></path></clipPath></defs></svg><svg viewBox="0 0 24 24" fill="none" id="menu-tv"><path d="M18.05 20.99h-2.62v-1.26h-6.86v1.26h-2.62a.71.71 0 1 0 0 1.43h12.1a.71.71 0 1 0 0-1.43Zm-18.05-5.34v1.93c0 .4.32.72.71.72h22.58c.39 0 .71-.32.71-.72v-1.93h-24Zm23.29-14.07h-22.58a.71.71 0 0 0-.71.72v11.93h24v-11.93c0-.4-.32-.72-.71-.72Z" fill="#4888FF" fill-opacity=".5"></path></svg><svg viewBox="0 0 38 16" fill="none" id="menu"><rect width="38" height="2" rx="1" fill="#fff"></rect><rect y="14" width="38" height="2" rx="1" fill="#fff"></rect><rect y="7" width="24" height="2" rx="1" fill="#fff"></rect></svg><svg viewBox="0 0 20 20" fill="none" id="orc"><g clip-path="url(#orc_0)" fill="#4888FF" fill-opacity=".5"><path d="M16.94 13.06a8.01 8.01 0 0 1-13.88 0 8.11 8.11 0 0 0-3.06 6.35c0 .33.26.59.59.59h18.82c.33 0 .59-.26.59-.59 0-2.56-1.2-4.86-3.06-6.35Zm-12.44-11.77h-2.31a.59.59 0 0 0-.59.58c0 1.14.44 2.17 1.15 2.94a7.36 7.36 0 0 1 1.75-3.52Zm13.9.59a.59.59 0 0 0-.59-.6h-2.31c.87.99 1.5 2.2 1.75 3.53a4.32 4.32 0 0 0 1.15-2.93Zm-14.61 5.42h1.09a1.76 1.76 0 0 1 3.37 0h3.5a1.76 1.76 0 0 1 3.37 0h1.1v-1.09a6.22 6.22 0 0 0-12.43 0v1.1Zm7.46-4.14h1.25a.59.59 0 0 1 0 1.18h-1.25a.59.59 0 0 1 0-1.18Zm-3.75 0h1.25a.59.59 0 0 1 0 1.18h-1.25a.59.59 0 0 1 0-1.18Z"></path><path d="M6.56 7.23a.59.59 0 0 0-.58.58v.67h-2.23a.59.59 0 0 0-.59.58 6.84 6.84 0 0 0 13.68 0 .59.59 0 0 0-.59-.58h-2.23v-.67a.59.59 0 1 0-1.17 0v.67h-5.7v-.67a.59.59 0 0 0-.59-.58Z"></path></g><defs><clipPath id="orc_0"><path fill="#fff" d="M0 0h20v20h-20z"></path></clipPath></defs></svg><svg viewBox="0 0 8 14" fill="none" id="phone"><path d="M6.34.35h-4.68a1.66 1.66 0 0 0-1.66 1.66v9.98c0 .92.76 1.66 1.66 1.66h4.68a1.66 1.66 0 0 0 1.66-1.66v-9.98a1.66 1.66 0 0 0-1.66-1.66Zm-2.33 12.23a.75.75 0 0 1-.76-.76c0-.42.33-.75.76-.75.42 0 .75.33.75.75 0 .43-.33.76-.75.76Zm3.23-2.31h-6.48v-7.7h6.48v7.7Z" fill="#343A3F" fill-opacity=".5"></path></svg><svg viewBox="0 0 22 22" fill="none" id="planet"><path d="M11 .5a10.5 10.5 0 1 0-.01 20.99 10.5 10.5 0 0 0 .01-20.99Zm-1.21 2.47c-1.16.75-1.98 1.33-2.16 1.97-.3 1.12 1.69 1.94 2.24 2.43 1 .9.54 3.1-.5 4.08-1.06.99-1.45 1.99-1.33 2.74.15.98 1.26 2.53 1.85 3.5.6.97-.03 1.19-.86.7-.62-.38-3.46-1.07-4.32-1.7-.87-.62-1.14-2.77-.87-3.66.28-.9.6-3.28-.76-4.06a2.5 2.5 0 0 1-.81-.72 9.17 9.17 0 0 1 9.1-6.4c-.6.44-1.18.86-1.58 1.12Zm8.97 9.74a16.09 16.09 0 0 1-2.78-.45c-1.07-.6-.72-1.4-.27-2.56.44-1.17-1.79-2.19-1.79-3.6 0-1.36.88-2.27 1.92-2.87a9.16 9.16 0 0 1 3.54 11.45c-.04-1 .05-1.9-.62-1.97Z" fill="#343A3F" fill-opacity=".5"></path></svg><svg viewBox="0 0 12 12" fill="none" id="plus"><g clip-path="url(#plus_0)" fill="#4888FF"><path d="M5.5 10.67v-9.34a.5.5 0 0 1 1 0v9.34a.5.5 0 1 1-1 0Z"></path><path d="M10.67 5.5a.5.5 0 0 1 0 1h-9.34a.5.5 0 0 1 0-1h9.34Z"></path></g><defs><clipPath id="plus_0"><path fill="#fff" d="M0 0h12v12h-12z"></path></clipPath></defs></svg><svg viewBox="0 0 12 14" fill="none" id="point"><path d="M6.05 14c.96-1.07 5.3-6.08 5.3-8.7a5.3 5.3 0 1 0-10.6 0c0 2.62 4.34 7.63 5.3 8.7Zm0-10.97a2.27 2.27 0 1 1 0 4.54 2.27 2.27 0 0 1 0-4.54Z" fill="#343A3F"></path></svg><svg viewBox="0 0 21 20" fill="none" id="scroll"><g clip-path="url(#scroll_0)" fill="#4888FF" fill-opacity=".5"><path d="M11.74 17.14c.16 0 .3-.12.33-.28l.04-.17.03-.1.02-.07c.2-.6.55-1.13 1.04-1.52h-2.11a6.89 6.89 0 0 0-.13 1.8c0 .11.02.21.04.32v.02h.74Zm.31-15.1c0-.08.02-.16.04-.23 0-.05.02-.09.03-.13.02-.07.03-.14.06-.2l.04-.13.08-.19.06-.12.1-.18.07-.11.13-.18.07-.1.18-.2.04-.04c.07-.08.16-.15.24-.22l.01-.01h-10.12a2.5 2.5 0 1 0 0 5h10.12a3.21 3.21 0 0 1-1.15-2.96Zm-8.97-.61c-.49 0-.92.33-1.04.8a.35.35 0 0 1-.63.13.36.36 0 0 1-.06-.3c.2-.8.91-1.35 1.73-1.35a.36.36 0 1 1 0 .72Zm2.5 0h-1.07a.36.36 0 0 1 0-.72h1.07a.36.36 0 1 1 0 .72Zm11.94 16.95c.26-.55.4-1.4-.39-2.37a2.51 2.51 0 0 0-1.9-1.01l-.25.02c-.07 0-.13 0-.2.02-.05 0-.1.03-.15.04a2.5 2.5 0 0 0-1.71 1.46l-.03.05-.06.21-.06.21c-.1.48-.51.83-1 .84h-.54c.31.66.8 1.2 1.43 1.56.16.1.32.17.48.24l.07.03.4.14.14.04.46.1h.13a3.05 3.05 0 0 0 3.17-1.6Z"></path><path d="M4.5 20h7.75a4.02 4.02 0 0 1-2.03-3.57 7.78 7.78 0 0 1 .04-.77l.05-.37.04-.24a9.6 9.6 0 0 1 .33-1.2 14.92 14.92 0 0 0-.72.79l-.02.01-.06.08-.01.02a.54.54 0 0 0-.03.05h-.02v.02l-.02.03a.41.41 0 0 1-.06.07h-.02l-.02.02a.29.29 0 0 1-.06.03h-.02l-.02.02a.3.3 0 0 1-.08 0l-.01.01h-.02c-.03 0-.07 0-.1-.02h-.01a.27.27 0 0 1-.1-.07.1.1 0 0 1-.03-.03.28.28 0 0 1-.07-.12l-.02-.03v-.15c.16-1.58.7-3.1 1.55-4.44a11.59 11.59 0 0 1 6.19-4.88c.52-.83.8-1.78.82-2.76a2.5 2.5 0 1 0-2.5 2.5.36.36 0 1 1 0 .71h-10.96c-.35.86-.78 1.68-1.28 2.45l-.64 1.1a12.47 12.47 0 0 0-1.76 6.45c0 2.2 1.9 4.29 3.93 4.29Zm-1.41-10.44a.35.35 0 0 1 .15-.21l.7-.47c.34-.23.8-.23 1.14 0l.32.21c.1.08.25.08.36 0l.31-.2c.35-.24.8-.24 1.16 0l.31.2a.3.3 0 0 0 .36 0l.32-.2a1 1 0 0 1 1.15 0l.7.46a.35.35 0 0 1 .1.49.36.36 0 0 1-.3.16.34.34 0 0 1-.2-.06l-.7-.46a.31.31 0 0 0-.36 0l-.31.2a1 1 0 0 1-1.15 0l-.32-.2a.31.31 0 0 0-.36 0l-.32.2a1 1 0 0 1-1.15 0l-.31-.2a.31.31 0 0 0-.36 0l-.7.46a.35.35 0 0 1-.5-.1.36.36 0 0 1-.04-.28Zm-.92 2.29.7-.47c.34-.23.8-.23 1.14 0l.32.21c.1.08.25.08.36 0l.31-.2a1 1 0 0 1 1.15 0l.32.2c.1.08.25.08.36 0l.32-.2a1 1 0 0 1 1.15 0l.69.46a.36.36 0 0 1-.2.65.34.34 0 0 1-.2-.06l-.69-.46a.31.31 0 0 0-.36 0l-.31.2c-.35.24-.8.24-1.16 0l-.31-.2a.31.31 0 0 0-.36 0l-.32.2a1 1 0 0 1-1.15 0l-.32-.2a.31.31 0 0 0-.35 0l-.7.46a.36.36 0 1 1-.4-.6Zm-.72 2.85.7-.46c.34-.23.8-.23 1.15 0l.31.21a.3.3 0 0 0 .36 0l.32-.21c.35-.23.8-.23 1.15 0l.32.21c.1.08.25.08.35 0l.32-.21c.35-.23.8-.23 1.15 0l.7.46.06.06a.36.36 0 0 1-.46.54l-.7-.46a.31.31 0 0 0-.35 0l-.32.2a1 1 0 0 1-1.15 0l-.32-.2a.31.31 0 0 0-.35 0l-.32.2a1 1 0 0 1-1.15 0l-.32-.2a.31.31 0 0 0-.36 0l-.7.46a.35.35 0 0 1-.49-.1.36.36 0 0 1-.06-.2c0-.12.06-.23.16-.3Z"></path><path d="M10.11 12.74c1.3-1.98 4.1-5.16 9.66-7.34-6 .5-8.62 4.78-9.66 7.34Z"></path><path d="M20.5 5.9c-6.2 2.29-8.99 5.84-10.07 7.68a22.9 22.9 0 0 1 4.43-3.22c2.1-1.18 4-2.69 5.64-4.46Z"></path></g><defs><clipPath id="scroll_0"><path fill="#fff" transform="translate(.54)" d="M0 0h20v20h-20z"></path></clipPath></defs></svg><svg viewBox="0 0 24 22" fill="none" id="telegram"><path d="M23.53.97a1.45 1.45 0 0 0-1.43-.31l-21.1 6.95a1.45 1.45 0 0 0-.13 2.71l5.22 2.28 1.57 7.3c.07.3.22.58.55.66.33.09.56-.1.8-.28l3.88-2.9 4.53 3.7a1.44 1.44 0 0 0 1.38.26c.48-.17.83-.55.94-1.04l4.22-17.93a1.45 1.45 0 0 0-.43-1.4Zm-14.18 12.94v.02l-.88 3.05-.97-4.52 6.7-3.72-4.69 4.9a.7.7 0 0 0-.16.27Zm.28 4.15.4-1.39.38-1.32 1.36 1.11-2.14 1.6Zm12.96-16.02-4.22 17.93c0 .01 0 .02-.02.03h-.04l-4.95-4.06-2.3-1.88 7.37-7.7a.7.7 0 0 0-.85-1.11l-10.92 6.06-5.23-2.28c-.01-.01-.02-.01-.02-.04s.01-.03.03-.04l21.1-6.95h.04v.04Z" fill="#343A3F"></path></svg><svg viewBox="0 0 24 24" fill="none" id="whatsapp"><path fill-rule="evenodd" clip-rule="evenodd" d="M20.13 3.27a11.16 11.16 0 0 0-17.55 13.45l-1.58 5.78 5.91-1.55a11.17 11.17 0 0 0 13.22-17.68Zm-7.89 17.15a9.2 9.2 0 0 1-4.72-1.29l-.34-.2-3.5.92.93-3.42-.22-.35a9.28 9.28 0 0 1 14.4-11.48 9.28 9.28 0 0 1-6.56 15.82Zm5.09-6.94c-.28-.14-1.65-.81-1.9-.9-.26-.1-.45-.14-.63.14-.19.28-.72.9-.89 1.09-.16.18-.32.2-.6.07-.28-.14-1.18-.44-2.24-1.38a8.4 8.4 0 0 1-1.55-1.93c-.16-.28 0-.42.12-.57.3-.38.6-.77.7-.96.1-.18.04-.34-.02-.48-.07-.14-.63-1.51-.86-2.07-.23-.55-.46-.47-.63-.48l-.53-.01c-.19 0-.5.07-.75.35-.25.28-.97.95-.97 2.32 0 1.37 1 2.7 1.14 2.88.13.19 1.96 3 4.75 4.21.67.29 1.19.46 1.6.59a3.7 3.7 0 0 0 1.75.1c.53-.07 1.65-.67 1.88-1.32.23-.65.23-1.2.16-1.32-.07-.12-.26-.19-.53-.33Z" fill="#343A3F"></path></svg></svg>