<svg viewBox="0 0 80 80" fill="none" xmlns="http://www.w3.org/2000/svg"><circle cx="40" cy="40" r="40" fill="#4888FF"/><circle cx="40" cy="40" r="35" fill="#4888FF"/><path d="M40.5 59.3a18.67 18.67 0 0 0 13.29-5.51 1.7 1.7 0 0 0 0-2.42l-10.87-10.87 10.87-10.87a1.7 1.7 0 0 0 0-2.42 18.79 18.79 0 1 0-13.29 32.08Zm0-34.17a15.26 15.26 0 0 1 9.6 3.36l-10.8 10.8a1.7 1.7 0 0 0 0 2.42l10.8 10.8a15.37 15.37 0 1 1-9.6-27.38Zm18.8 15.37a3.42 3.42 0 1 1-6.84 0 3.42 3.42 0 0 1 6.83 0Zm-25.63-8.54a3.42 3.42 0 1 1 6.83 0 3.42 3.42 0 0 1-6.83 0Z" fill="#fff"/></svg>